<svg width="40" height="40" viewBox="0 0 40 40" fill="none" xmlns="http://www.w3.org/2000/svg">
<path fill-rule="evenodd" clip-rule="evenodd" d="M20.4043 1.1754C20.4043 1.1754 20.689 5.74446 20.694 6.66124C22.1323 6.74352 23.5398 7.06161 24.866 7.58024V8.789C24.6242 8.68488 24.3791 8.58808 24.1312 8.49886C24.1846 8.58562 24.2365 8.74495 24.2365 9.03651C24.2365 9.63651 23.3965 11.6765 19.9965 11.6765C16.5965 11.6765 15.8365 9.55651 15.8365 9.05651C15.8365 8.71017 15.9133 8.52696 15.9605 8.44706C12.2504 9.75368 9.22195 12.8149 8.04007 16.6874C9.10029 17.4092 9.85583 18.8473 9.85583 20.6152C9.85583 22.3283 9.32736 23.557 8.27597 24.4461C10.0461 29.0656 14.6667 32.3131 20.0144 32.3131C25.3519 32.3131 29.928 29.0899 31.7335 24.4533C30.6765 23.5635 30.1452 22.3329 30.1452 20.6152C30.1452 18.8238 30.921 17.371 32.0035 16.6589L32.0435 16.6318C31.8371 15.9623 31.5721 15.3172 31.2554 14.7014H32.5035C32.6971 15.1218 32.869 15.5538 33.0175 15.9963C34.6869 15.8678 36.4055 17.2092 36.9628 18.8106C37.5127 20.3911 37.3758 22.5663 35.6676 24.1259C34.4955 25.1959 33.6134 25.1899 32.6749 25.151L32.6644 25.1433C31.0888 28.9275 27.8087 31.8 23.7869 32.9205V33.4431C24.724 33.5298 27.8191 33.9197 29.598 35.39C29.598 35.39 26.6807 39.505 19.9467 39.505C13.2126 39.505 10.3326 35.4127 10.3326 35.4127C12.1005 33.8717 15.5444 33.4907 16.2062 33.4305V32.91C12.1866 31.7798 8.89318 28.9051 7.34355 25.1381L7.32615 25.151C6.38769 25.1899 5.5055 25.1959 4.33349 24.1259C2.62527 22.5663 2.48829 20.3911 3.03827 18.8106C3.59995 17.1964 5.34171 15.8464 7.02357 15.9997L7.07279 16.033C8.82952 10.7627 13.7397 6.9513 19.2631 6.65808L19.5913 1.1754C19.5913 1.1754 19.5704 0.48999 19.9978 0.48999C20.4251 0.48999 20.4043 1.1754 20.4043 1.1754ZM4.16154 20.534C4.16154 18.8139 5.4154 17.7823 5.67212 17.7297C4.92161 19.2402 4.92095 21.6568 5.7146 23.3609C5.41617 23.316 4.16154 22.2542 4.16154 20.534ZM35.8395 20.534C35.8395 18.8139 34.5856 17.7823 34.3289 17.7297C35.0794 19.2402 35.0801 21.6568 34.2864 23.3609C34.5849 23.316 35.8395 22.2542 35.8395 20.534ZM17.4389 8.78329L17.2822 8.91501C17.2412 8.94946 17.2208 8.96669 17.2155 8.99474C17.2102 9.02276 17.2216 9.04372 17.2444 9.08562C17.4087 9.38747 18.0609 10.2734 20.0554 10.2734C22.0474 10.2734 22.6898 9.37774 22.8515 9.07071C22.8741 9.02774 22.8854 9.00624 22.8794 8.97794C22.8779 8.97081 22.8754 8.96442 22.8719 8.95831C22.8692 8.95364 22.8658 8.94913 22.8618 8.94458C22.8502 8.93138 22.8331 8.91784 22.8093 8.89909L22.6608 8.78216C22.6549 8.77747 22.65 8.77366 22.6459 8.77079C22.6389 8.76597 22.6339 8.76376 22.6287 8.76437C22.6252 8.76479 22.6219 8.76657 22.6184 8.76976C22.615 8.77285 22.6112 8.77727 22.6066 8.7831L22.6016 8.7894C22.4609 8.96872 21.7168 9.7971 19.9823 9.7971C18.2707 9.7971 17.6312 8.98749 17.5023 8.79315C17.4893 8.77358 17.4828 8.76382 17.474 8.76255C17.4651 8.76128 17.4564 8.7686 17.4389 8.78329ZM16.2062 34.4383C16.2062 36.5072 23.7869 36.4323 23.7869 34.4172V34.2672C25.0504 34.5603 25.8518 34.9969 25.8518 35.4844C25.8518 36.3671 23.2254 37.0826 19.9856 37.0826C16.7459 37.0826 14.1195 36.3671 14.1195 35.4844C14.1195 34.9941 14.9301 34.5553 16.2062 34.2621V34.4383Z" fill="#282727"/>
<path d="M20.001 24.7892C18.979 24.7892 18.1506 25.6176 18.1506 26.6396C18.1506 27.6615 18.979 28.49 20.001 28.49C21.0229 28.49 21.8514 27.6615 21.8514 26.6396C21.8514 25.6176 21.0229 24.7892 20.001 24.7892Z" fill="#282727"/>
<path d="M12.8164 17.8891C12.7733 18.0825 12.7505 18.2289 12.7505 18.4353C12.7505 19.9541 13.9818 21.1853 15.5005 21.1853C17.0193 21.1853 18.2505 19.9541 18.2505 18.4353C18.2505 18.2289 18.2278 18.0819 18.1847 17.8885H17.9596C17.5076 18.7885 16.5762 19.352 15.5005 19.352C14.4249 19.352 13.4934 18.7891 13.0415 17.8891H12.8164Z" fill="#282727"/>
<path d="M22.2493 18.4353C22.2493 18.2289 22.2721 18.0826 22.3152 17.8892H22.5403C22.9922 18.7891 23.9237 19.352 24.9993 19.352C26.075 19.352 27.0064 18.7891 27.4584 17.8892H27.6835C27.7266 18.0826 27.7493 18.2289 27.7493 18.4353C27.7493 19.9541 26.5181 21.1853 24.9993 21.1853C23.4805 21.1853 22.2493 19.9541 22.2493 18.4353Z" fill="#282727"/>
<path d="M29.9248 10.6349L32.1346 6.54722H30.0908V5.39429H34.0823L31.8726 9.48196H33.9339V10.6349H29.9248Z" fill="#282727"/>
<path d="M34.5723 7.09449L37.3323 1.98896H34.7795V0.548943H39.7651L37.005 5.65447H39.5796V7.09449H34.5723Z" fill="#282727"/>
<path d="M25.876 13.699L27.6216 10.47H26.0071V9.55925H29.1602L27.4146 12.7882H29.0429V13.699H25.876Z" fill="#282727"/>
</svg>